# xmcd
#
# Track frame offsets:
#	150
#	25678
#	39797
#	58189
#	73497
#	92617
#	110403
#	128725
#	145495
#	163362
#
# Disc length: 2584 seconds
#
# Revision: 1
# Processed by: cddbd v1.5.2PL0 Copyright (c) Steve Scherf et al.
# Submitted via: audiograbber 1.83.01
#
DISCID=8e0a160a
DTITLE=Rod Dowsett - Down To Earth
DYEAR=1900
DGENRE=
TTITLE0=Chinatown
TTITLE1=Tradies Song
TTITLE2=Largest Bullock Team
TTITLE3=Sort It Out
TTITLE4=She's Furious
TTITLE5=Grandpa's Watch
TTITLE6=Fowl Obsession
TTITLE7=Shearing Shed
TTITLE8=Broke Down Ramshackled
TTITLE9=Tin Cup
EXTD=
EXTT0=
EXTT1=
EXTT2=
EXTT3=
EXTT4=
EXTT5=
EXTT6=
EXTT7=
EXTT8=
EXTT9=
PLAYORDER=
